<svg xmlns="http://www.w3.org/2000/svg" width="44" height="39.176" viewBox="0 0 44 39.176"><defs><style>.a{fill:#28ad47;}</style></defs><g transform="translate(-140 -22)"><g transform="translate(140 22)"><path class="a" d="M3.937,7.874A3.937,3.937,0,1,1,7.875,3.937,3.942,3.942,0,0,1,3.937,7.874Zm.057-5.86A2.015,2.015,0,1,0,6.009,4.03,2.017,2.017,0,0,0,3.995,2.015Z" transform="translate(18.07 15.558)"/><path class="a" d="M113.257,105.066a17.955,17.955,0,0,0-5.569-2.933c-.455-.157-.926-.314-1.412-.439.078-.329.157-.659.22-.973,1.1-5.3.314-9.427-2.024-10.776a5.354,5.354,0,0,0-4.518,0A17.879,17.879,0,0,0,94.637,93.3c-.361.314-.737.659-1.1,1-.251-.235-.486-.455-.737-.674-4.047-3.592-8.016-4.988-10.353-3.639a5.342,5.342,0,0,0-2.259,3.922,18.189,18.189,0,0,0,.251,6.29c.094.471.2.973.329,1.459-.565.157-1.114.329-1.631.518-4.784,1.663-7.639,4.2-7.639,6.808a5.589,5.589,0,0,0,2.306,4.047,17.735,17.735,0,0,0,5.757,3.074c.392.125.784.251,1.192.376-.125.533-.251,1.051-.345,1.569-.941,4.973-.157,8.722,2.086,10.023a4.135,4.135,0,0,0,2.1.518,7.543,7.543,0,0,0,2.541-.486,17.566,17.566,0,0,0,5.537-3.435c.3-.267.612-.549.91-.847.392.377.8.737,1.192,1.082,2.824,2.431,5.522,3.718,7.655,3.718a4,4,0,0,0,2.055-.518,5.557,5.557,0,0,0,2.353-4.016,18.284,18.284,0,0,0-.22-6.525c-.078-.392-.157-.784-.267-1.176.282-.078.549-.173.816-.251,5.145-1.694,8.329-4.439,8.329-7.137A5.3,5.3,0,0,0,113.257,105.066ZM100.6,91.717a3.715,3.715,0,0,1,2.933-.141c1.255.722,2.149,3.78,1.114,8.769-.063.282-.125.58-.2.863a43.8,43.8,0,0,0-5.9-.925,43.109,43.109,0,0,0-3.718-4.627c.329-.329.674-.627,1-.926A16.807,16.807,0,0,1,100.6,91.717Zm-.941,20.863c-.69,1.192-1.4,2.337-2.1,3.4-1.3.094-2.651.141-4.031.141s-2.714-.047-3.984-.126c-.753-1.1-1.474-2.243-2.149-3.4-.674-1.176-1.3-2.369-1.882-3.545.565-1.192,1.192-2.384,1.867-3.545h0c.674-1.176,1.4-2.322,2.133-3.4,1.318-.094,2.651-.157,4-.157,1.365,0,2.7.047,4.016.157.722,1.082,1.443,2.212,2.118,3.388.69,1.208,1.333,2.384,1.9,3.529C100.974,110.2,100.347,111.387,99.657,112.579Zm2.9-1.4a37.789,37.789,0,0,1,1.475,3.874,37.264,37.264,0,0,1-4.11.706c.455-.722.91-1.474,1.349-2.243C101.743,112.736,102.167,111.952,102.559,111.183Zm-8.972,9.945a39.286,39.286,0,0,1-2.651-3.169c.831.031,1.694.047,2.573.047.894,0,1.788-.016,2.667-.063C95.312,119.1,94.449,120.171,93.586,121.128Zm-6.447-5.349a35.772,35.772,0,0,1-4.047-.659,40.537,40.537,0,0,1,1.427-3.874c.392.753.816,1.522,1.255,2.274Q86.41,114.7,87.139,115.779Zm-1.38-11.231c-.439.753-.847,1.522-1.255,2.275a39.115,39.115,0,0,1-1.4-3.812c1.255-.282,2.6-.518,4-.69C86.637,103.058,86.182,103.8,85.759,104.548ZM93.539,97c.863.941,1.725,1.976,2.588,3.122-.863-.047-1.741-.063-2.62-.063-.863,0-1.725.016-2.573.063A38.079,38.079,0,0,1,93.539,97Zm7.733,7.529c-.439-.753-.878-1.49-1.333-2.2a38.146,38.146,0,0,1,4.016.706,36.677,36.677,0,0,1-1.412,3.8Q101.955,105.685,101.272,104.532Zm-18.98-4.69a15.784,15.784,0,0,1-.235-5.6,3.648,3.648,0,0,1,1.349-2.62c1.255-.722,4.345.031,8.157,3.42q.329.282.659.612a43.626,43.626,0,0,0-3.733,4.627,46.7,46.7,0,0,0-5.882.91C82.48,100.736,82.386,100.3,82.292,99.842Zm-2.133,14.494c-4.659-1.584-6.776-3.89-6.776-5.349,0-1.4,1.976-3.5,6.384-5.035q.729-.259,1.506-.471a43.457,43.457,0,0,0,2.149,5.569,44.353,44.353,0,0,0-2.165,5.631C80.88,114.571,80.52,114.446,80.159,114.336ZM84.6,126.713a2.311,2.311,0,0,1-1.161-.267c-1.208-.69-2.039-3.451-1.176-8.031.094-.471.2-.957.314-1.459a44.419,44.419,0,0,0,5.929.863,47.083,47.083,0,0,0,3.78,4.674c-.282.267-.565.533-.831.769C88.6,125.724,86.151,126.713,84.6,126.713Zm20.2-8.784c.957,4.831.031,7.812-1.224,8.533-1.208.706-4.016.047-7.545-3-.361-.314-.737-.659-1.114-1a41.413,41.413,0,0,0,3.686-4.69,43.222,43.222,0,0,0,5.961-.925Q104.684,117.411,104.8,117.928Zm1.8-3.592c-.235.078-.486.157-.737.235A42.862,42.862,0,0,0,103.641,109a45.57,45.57,0,0,0,2.149-5.506c.455.125.894.267,1.318.408a16.157,16.157,0,0,1,4.973,2.6,3.636,3.636,0,0,1,1.584,2.478C113.649,110.446,111.437,112.736,106.606,114.336Z" transform="translate(-71.5 -89.45)"/></g></g></svg>