<svg xmlns="http://www.w3.org/2000/svg" width="59.33" height="52.825" viewBox="0 0 59.33 52.825"><defs><style>.a{fill:#fff;}</style></defs><g transform="translate(-71.5 -89.45)"><path class="a" d="M5.309,10.618a5.309,5.309,0,1,1,5.308-5.309A5.315,5.315,0,0,1,5.309,10.618Zm.077-7.9A2.717,2.717,0,1,0,8.1,5.433,2.72,2.72,0,0,0,5.386,2.716Z" transform="translate(95.866 110.428)"/><path class="a" d="M127.8,110.506a24.21,24.21,0,0,0-7.509-3.955c-.613-.212-1.248-.423-1.9-.592.106-.444.211-.888.3-1.311,1.481-7.149.423-12.712-2.729-14.531-1.544-.888-3.659-.888-6.092,0a24.107,24.107,0,0,0-7.17,4.526c-.486.423-.994.888-1.481,1.354-.338-.317-.656-.613-.994-.909-5.457-4.844-10.808-6.726-13.96-4.907-1.544.888-2.6,2.729-3.046,5.288a24.526,24.526,0,0,0,.338,8.482c.127.635.275,1.311.444,1.967-.761.212-1.5.444-2.2.7-6.451,2.242-10.3,5.669-10.3,9.18,0,1.819,1.079,3.723,3.109,5.457a23.914,23.914,0,0,0,7.763,4.146c.529.169,1.058.338,1.607.508-.169.719-.338,1.417-.465,2.115-1.269,6.7-.212,11.76,2.813,13.516a5.576,5.576,0,0,0,2.834.7,10.171,10.171,0,0,0,3.426-.656,23.687,23.687,0,0,0,7.466-4.632c.4-.36.825-.74,1.227-1.142.529.508,1.079.994,1.607,1.459,3.807,3.278,7.445,5.013,10.322,5.013a5.393,5.393,0,0,0,2.771-.7c1.586-.91,2.686-2.792,3.173-5.415a24.654,24.654,0,0,0-.3-8.8c-.106-.529-.212-1.058-.36-1.586.381-.106.74-.233,1.1-.338,6.938-2.284,11.231-5.986,11.231-9.624C130.851,114.017,129.793,112.177,127.8,110.506Zm-17.069-18c1.692-.613,3.088-.677,3.955-.19,1.692.973,2.9,5.1,1.5,11.824-.085.381-.169.783-.275,1.163a59.067,59.067,0,0,0-7.953-1.248,58.125,58.125,0,0,0-5.013-6.24c.444-.444.909-.846,1.354-1.248A22.662,22.662,0,0,1,110.736,92.506Zm-1.269,28.131c-.931,1.607-1.882,3.152-2.834,4.59-1.756.127-3.575.19-5.436.19s-3.659-.063-5.372-.169c-1.015-1.481-1.988-3.025-2.9-4.59-.91-1.586-1.756-3.194-2.538-4.78.761-1.607,1.607-3.215,2.517-4.78h0c.91-1.586,1.882-3.13,2.877-4.59,1.777-.127,3.575-.212,5.394-.212,1.84,0,3.638.063,5.415.212.973,1.459,1.946,2.982,2.855,4.569.931,1.629,1.8,3.215,2.559,4.759C111.243,117.423,110.4,119.03,109.467,120.638Zm3.913-1.882a50.968,50.968,0,0,1,1.988,5.224,50.244,50.244,0,0,1-5.542.952c.613-.973,1.227-1.988,1.819-3.025C112.28,120.849,112.851,119.792,113.38,118.755Zm-12.1,13.41a52.974,52.974,0,0,1-3.575-4.273c1.121.042,2.284.063,3.469.063,1.206,0,2.411-.021,3.6-.085C103.608,129.437,102.444,130.875,101.281,132.165Zm-8.693-7.213a48.236,48.236,0,0,1-5.457-.888,54.659,54.659,0,0,1,1.925-5.224c.529,1.015,1.1,2.052,1.692,3.067Q91.6,123.493,92.588,124.952Zm-1.861-15.144c-.592,1.015-1.142,2.052-1.692,3.067a52.744,52.744,0,0,1-1.882-5.14c1.692-.381,3.511-.7,5.394-.931C91.911,107.8,91.3,108.793,90.727,109.808Zm10.491-10.174c1.163,1.269,2.327,2.665,3.49,4.209-1.163-.063-2.348-.085-3.532-.085-1.163,0-2.327.021-3.469.085A51.349,51.349,0,0,1,101.218,99.634Zm10.428,10.153c-.592-1.015-1.184-2.009-1.8-2.961a51.433,51.433,0,0,1,5.415.952,49.46,49.46,0,0,1-1.9,5.119Q112.565,111.342,111.645,109.787Zm-25.593-6.324a21.282,21.282,0,0,1-.317-7.551c.3-1.777.952-3.025,1.819-3.532,1.692-.973,5.859.042,11,4.611q.444.381.888.825a58.833,58.833,0,0,0-5.034,6.24,62.972,62.972,0,0,0-7.932,1.227C86.306,104.668,86.179,104.076,86.052,103.463Zm-2.877,19.544c-6.282-2.136-9.137-5.246-9.137-7.213,0-1.882,2.665-4.717,8.609-6.79q.984-.349,2.031-.635a58.6,58.6,0,0,0,2.9,7.509,59.8,59.8,0,0,0-2.919,7.593C84.148,123.324,83.662,123.155,83.176,123.007Zm5.986,16.688a3.115,3.115,0,0,1-1.565-.36c-1.629-.931-2.75-4.653-1.586-10.829.127-.635.275-1.29.423-1.967a59.9,59.9,0,0,0,8,1.163,63.488,63.488,0,0,0,5.1,6.3c-.381.36-.761.719-1.121,1.036C94.555,138.362,91.255,139.695,89.161,139.695ZM116.4,127.85c1.29,6.515.042,10.533-1.65,11.506-1.629.952-5.415.063-10.174-4.04-.486-.423-.994-.888-1.5-1.354a55.841,55.841,0,0,0,4.971-6.324,58.284,58.284,0,0,0,8.037-1.248Q116.246,127.152,116.4,127.85Zm2.432-4.844c-.317.106-.656.212-.994.317a57.8,57.8,0,0,0-3-7.509,61.452,61.452,0,0,0,2.9-7.424c.613.169,1.206.36,1.777.55a21.786,21.786,0,0,1,6.7,3.511c1.375,1.142,2.136,2.327,2.136,3.342C128.334,117.761,125.351,120.849,118.837,123.007Z" transform="translate(0 0)"/></g></svg>